# xmcd CD database file
#
# Track frame offsets:
#	150
#	9565
#	31040
#	48947
#	70422
#	98799
#	114689
#	130297
#
# Disc length: 1904 seconds
#
# Revision: 0
# Processed by: cddbd v1.5.1PL2 Copyright (c) Steve Scherf et al.
# Submitted via: CDex 1.51
#
DISCID=64076e08
DTITLE=Megan Jerome Trio - unlonely
DYEAR=2004
DGENRE=Jazz
TTITLE0=3 Cars
TTITLE1=Lullaby
TTITLE2=Yellow Moon
TTITLE3=Spider Tango
TTITLE4=Last Waltz
TTITLE5=Big Sky
TTITLE6=Unlonely
TTITLE7=Jerry
EXTD=YEAR: 2004
EXTT0=
EXTT1=
EXTT2=
EXTT3=
EXTT4=
EXTT5=
EXTT6=
EXTT7=
PLAYORDER=
